<svg id="svg" xmlns="http://www.w3.org/2000/svg" xmlns:xlink="http://www.w3.org/1999/xlink" width="400" height="41.276679067945956" viewBox="0, 0, 400,41.276679067945956" version="1.1"><g id="svgg"><path id="path0" d="M105.385 0.091 C 95.961 1.155,90.668 8.598,90.663 20.795 C 90.658 33.506,96.660 41.040,106.965 41.256 C 117.336 41.475,123.658 34.543,124.305 22.244 C 125.083 7.478,117.596 -1.287,105.385 0.091 M42.138 0.144 C 42.138 0.180,41.839 0.275,41.472 0.355 C 41.106 0.435,40.807 0.528,40.807 0.561 C 40.807 0.594,40.756 0.602,40.695 0.579 C 40.633 0.555,40.466 0.590,40.323 0.656 C 40.180 0.722,39.657 0.882,39.162 1.011 C 38.667 1.141,37.750 1.392,37.126 1.570 C 36.501 1.749,35.602 1.998,35.128 2.125 C 34.654 2.253,34.196 2.388,34.110 2.428 C 33.964 2.494,33.174 2.714,30.938 3.313 C 30.443 3.446,30.020 3.574,29.998 3.599 C 29.977 3.623,29.483 3.763,28.902 3.910 C 28.320 4.056,27.809 4.201,27.766 4.231 C 27.723 4.261,27.282 4.384,26.787 4.504 C 26.291 4.623,25.851 4.748,25.808 4.780 C 25.765 4.812,25.527 4.883,25.279 4.938 L 24.829 5.038 24.829 23.001 C 24.829 32.880,24.843 40.963,24.861 40.963 C 24.955 40.963,26.458 40.553,26.591 40.491 C 26.736 40.424,27.516 40.207,29.724 39.619 C 30.198 39.493,30.656 39.357,30.742 39.317 C 30.828 39.277,31.322 39.136,31.839 39.003 C 32.356 38.871,32.849 38.730,32.935 38.691 C 33.021 38.652,33.480 38.516,33.953 38.389 C 34.427 38.262,35.326 38.013,35.951 37.835 C 36.575 37.657,37.509 37.393,38.026 37.248 C 38.543 37.103,39.477 36.839,40.102 36.661 C 40.726 36.483,41.625 36.233,42.099 36.104 C 43.417 35.747,44.096 35.369,44.096 34.992 C 44.096 34.954,44.131 34.945,44.174 34.971 C 44.224 35.002,44.251 29.201,44.252 18.089 L 44.254 1.160 44.084 0.790 C 43.830 0.236,43.538 0.078,42.766 0.078 C 42.421 0.078,42.138 0.108,42.138 0.144 M13.750 0.634 C 13.770 0.666,13.786 8.748,13.785 18.595 C 13.784 38.621,13.731 36.717,14.292 36.858 C 14.401 36.885,14.490 36.936,14.490 36.970 C 14.490 37.005,14.737 37.130,15.038 37.248 C 15.340 37.367,15.586 37.488,15.586 37.518 C 15.586 37.548,15.824 37.671,16.115 37.792 C 16.406 37.913,16.697 38.056,16.761 38.111 C 16.826 38.165,17.037 38.271,17.231 38.347 C 17.425 38.423,17.715 38.567,17.876 38.667 C 18.037 38.767,18.188 38.849,18.211 38.849 C 18.235 38.849,19.143 39.289,20.230 39.828 L 22.205 40.807 22.226 22.890 C 22.238 13.036,22.231 4.902,22.210 4.816 C 22.169 4.645,22.134 4.627,16.957 2.067 C 14.262 0.734,13.640 0.456,13.750 0.634 M10.652 0.744 C 10.598 0.809,10.523 0.862,10.485 0.862 C 10.420 0.862,8.493 1.794,8.224 1.956 C 8.159 1.994,7.155 2.491,5.992 3.060 C 0.224 5.881,0.456 5.752,0.189 6.279 L -0.001 6.654 0.001 23.586 C 0.001 32.898,0.024 40.496,0.051 40.469 C 0.077 40.442,0.200 40.560,0.324 40.731 C 0.448 40.902,0.602 41.042,0.666 41.042 C 0.731 41.042,0.783 41.077,0.783 41.120 C 0.783 41.165,1.033 41.198,1.376 41.198 L 1.970 41.198 6.584 38.907 L 11.198 36.616 11.199 18.621 L 11.200 0.627 10.975 0.627 C 10.851 0.627,10.706 0.679,10.652 0.744 M237.284 0.943 C 235.104 1.191,233.653 2.266,233.212 3.959 C 233.032 4.647,233.029 36.618,233.209 37.306 C 233.669 39.075,235.125 40.104,237.506 40.346 C 240.135 40.612,242.281 39.796,243.076 38.226 C 243.486 37.418,243.506 37.167,243.508 32.994 L 243.509 29.136 242.220 29.136 L 240.931 29.136 240.908 33.072 C 240.882 37.516,240.891 37.449,240.234 38.090 C 239.129 39.167,236.626 38.770,235.885 37.400 L 235.716 37.086 235.695 20.759 C 235.673 2.413,235.621 3.984,236.271 3.334 C 237.264 2.341,239.417 2.346,240.295 3.344 C 240.881 4.010,240.878 3.985,240.906 8.009 L 240.932 11.592 242.220 11.592 L 243.509 11.592 243.509 8.039 C 243.509 4.161,243.488 3.918,243.081 3.088 C 242.277 1.450,240.056 0.628,237.284 0.943 M54.670 20.599 L 54.670 40.180 59.918 40.180 L 65.165 40.180 65.185 24.186 L 65.205 8.192 68.651 24.186 L 72.097 40.180 79.871 40.180 L 87.644 40.180 87.644 20.599 L 87.644 1.018 82.358 1.018 L 77.071 1.018 77.065 12.551 L 77.059 24.085 73.766 12.551 L 70.473 1.018 62.571 1.018 L 54.670 1.018 54.670 20.599 M127.276 20.599 L 127.276 40.180 133.699 40.180 L 140.121 40.180 140.121 30.781 L 140.121 21.382 140.885 21.383 C 142.128 21.384,142.782 21.826,143.370 23.064 C 144.094 24.586,144.289 25.621,145.095 32.201 C 145.524 35.711,145.948 38.606,146.218 39.867 L 146.276 40.141 152.637 40.161 C 156.135 40.172,158.997 40.161,158.997 40.136 C 158.997 40.111,158.912 39.750,158.806 39.333 C 158.290 37.283,158.061 35.701,157.547 30.625 C 156.737 22.635,156.142 21.492,152.281 20.493 C 151.547 20.304,151.522 20.279,151.929 20.136 C 156.036 18.691,157.844 15.730,157.722 10.652 C 157.581 4.836,154.948 1.875,149.262 1.138 C 148.472 1.036,146.805 1.018,137.807 1.018 L 127.276 1.018 127.276 20.599 M159.076 6.344 L 159.076 11.670 163.070 11.670 L 167.065 11.670 167.065 25.925 L 167.065 40.180 173.605 40.180 L 180.145 40.180 180.145 25.925 L 180.145 11.670 184.139 11.670 L 188.134 11.670 188.134 6.344 L 188.134 1.018 173.605 1.018 L 159.076 1.018 159.076 6.344 M189.857 20.599 L 189.857 40.180 196.358 40.180 L 202.859 40.180 202.859 30.625 L 202.859 21.069 205.522 21.069 L 208.185 21.069 208.185 30.625 L 208.185 40.180 214.647 40.180 L 221.108 40.180 221.108 20.599 L 221.108 1.018 214.647 1.018 L 208.185 1.018 208.185 7.676 L 208.185 14.333 205.522 14.333 L 202.859 14.333 202.859 7.676 L 202.859 1.018 196.358 1.018 L 189.857 1.018 189.857 20.599 M256.902 20.633 L 256.902 40.180 258.195 40.180 L 259.487 40.180 259.487 30.535 L 259.487 20.891 260.956 20.933 C 263.384 21.003,264.260 21.357,264.879 22.518 L 265.087 22.910 265.108 31.545 L 265.129 40.180 266.422 40.180 L 267.714 40.180 267.693 31.388 L 267.672 22.596 267.446 22.108 C 266.976 21.091,266.028 20.506,264.435 20.252 L 263.834 20.156 264.265 20.098 C 266.234 19.834,267.261 19.093,267.589 17.700 C 267.772 16.921,267.770 4.383,267.587 3.754 C 267.238 2.561,266.276 1.751,264.696 1.317 C 264.102 1.154,263.882 1.144,260.486 1.115 L 256.902 1.085 256.902 20.633 M281.653 20.638 L 281.653 40.180 286.195 40.180 L 290.738 40.180 290.738 39.319 L 290.738 38.457 287.488 38.457 L 284.237 38.457 284.237 29.685 L 284.237 20.912 287.057 20.912 L 289.877 20.912 289.877 20.090 L 289.877 19.268 287.057 19.268 L 284.237 19.268 284.237 11.044 L 284.237 2.820 287.253 2.820 L 290.268 2.820 290.268 1.958 L 290.268 1.097 285.960 1.097 L 281.653 1.097 281.653 20.638 M307.619 1.351 C 307.594 1.491,306.466 10.170,305.111 20.638 C 303.755 31.106,302.627 39.786,302.602 39.926 L 302.558 40.180 303.736 40.180 C 304.624 40.180,304.916 40.156,304.920 40.082 C 304.923 40.028,305.232 37.464,305.606 34.384 L 306.287 28.784 309.341 28.764 L 312.395 28.743 313.087 34.285 C 313.467 37.334,313.797 39.907,313.820 40.004 C 313.860 40.178,313.877 40.180,315.153 40.180 L 316.445 40.180 316.406 40.004 C 316.384 39.907,315.209 31.113,313.794 20.462 L 311.223 1.097 309.443 1.097 L 307.663 1.097 307.619 1.351 M325.436 1.958 L 325.436 2.820 327.668 2.820 L 329.900 2.820 329.900 21.500 L 329.900 40.180 331.192 40.180 L 332.485 40.180 332.485 21.500 L 332.485 2.820 334.717 2.820 L 336.949 2.820 336.949 1.958 L 336.949 1.097 331.192 1.097 L 325.436 1.097 325.436 1.958 M349.638 20.638 L 349.638 40.180 350.930 40.180 L 352.222 40.180 352.222 20.638 L 352.222 1.097 350.930 1.097 L 349.638 1.097 349.638 20.638 M367.465 20.617 C 368.810 31.355,369.914 40.150,369.918 40.161 C 369.938 40.228,373.370 40.168,373.370 40.101 C 373.370 40.057,374.463 31.281,375.798 20.599 C 377.133 9.917,378.226 1.159,378.226 1.137 C 378.226 1.115,377.665 1.097,376.980 1.097 L 375.733 1.097 375.687 1.390 C 375.597 1.954,372.957 25.330,372.553 29.136 C 372.445 30.149,372.214 32.650,372.038 34.694 C 371.863 36.738,371.708 38.422,371.693 38.437 C 371.679 38.451,371.643 38.170,371.614 37.814 C 371.078 31.302,370.388 24.743,369.014 13.080 C 368.560 9.225,368.059 4.960,367.900 3.603 L 367.612 1.136 366.315 1.114 L 365.018 1.093 367.465 20.617 M390.993 20.638 L 390.993 40.180 395.496 40.180 L 400.000 40.180 400.000 39.319 L 400.000 38.457 396.789 38.457 L 393.577 38.457 393.577 29.685 L 393.577 20.912 396.397 20.912 L 399.217 20.912 399.217 20.090 L 399.217 19.268 396.397 19.268 L 393.577 19.268 393.577 11.044 L 393.577 2.820 396.593 2.820 L 399.608 2.820 399.608 1.958 L 399.608 1.097 395.301 1.097 L 390.993 1.097 390.993 20.638 M309.491 3.564 C 309.696 6.263,311.759 24.181,312.167 26.806 L 312.213 27.100 309.386 27.100 C 307.832 27.100,306.560 27.075,306.560 27.043 C 306.560 27.012,306.929 24.113,307.380 20.601 C 308.415 12.539,308.582 11.003,309.277 3.184 C 309.338 2.506,309.422 2.656,309.491 3.564 M263.599 3.009 C 264.206 3.231,264.599 3.543,264.855 4.006 L 265.087 4.425 265.109 10.802 C 265.133 18.092,265.158 17.772,264.512 18.414 C 263.860 19.060,262.953 19.268,260.774 19.268 L 259.487 19.268 259.487 11.037 L 259.487 2.807 261.347 2.836 C 262.906 2.861,263.271 2.889,263.599 3.009 M142.196 7.687 C 144.023 8.298,145.229 10.319,145.343 12.963 C 145.473 15.960,144.258 17.166,140.924 17.346 L 139.965 17.397 139.965 12.408 L 139.965 7.418 140.845 7.474 C 141.378 7.508,141.910 7.592,142.196 7.687 M108.305 7.719 C 110.091 8.463,110.835 12.155,110.838 20.286 C 110.841 28.189,110.041 30.703,107.478 30.844 C 104.980 30.981,104.014 28.191,104.016 20.834 C 104.018 11.391,105.589 6.587,108.305 7.719 " stroke="none" fill="#000000" fill-rule="evenodd"></path></g></svg>