<svg id="svg" xmlns="http://www.w3.org/2000/svg" xmlns:xlink="http://www.w3.org/1999/xlink" width="400" height="367.75431861804225" viewBox="0, 0, 400,367.75431861804225" version="1.1"><g id="svgg"><path id="path0" d="M365.451 5.364 C 355.528 8.254,340.672 12.523,332.438 14.849 C 324.203 17.176,304.683 22.761,289.060 27.260 C 258.379 36.097,245.769 39.677,233.781 42.954 L 226.104 45.053 225.910 204.868 C 225.794 300.766,225.996 364.683,226.416 364.683 C 227.237 364.683,255.423 356.857,272.553 351.873 C 279.098 349.968,291.190 346.522,299.424 344.214 C 307.658 341.906,320.787 338.153,328.599 335.874 C 336.411 333.595,353.340 328.747,366.219 325.102 C 391.582 317.923,393.448 317.140,395.999 312.601 L 397.697 309.580 397.697 159.901 L 397.697 10.222 395.929 6.879 C 391.644 -1.225,388.590 -1.376,365.451 5.364 M55.512 28.308 C 7.683 52.248,7.510 52.347,5.283 57.198 C 3.061 62.035,3.085 355.656,5.308 360.550 C 7.485 365.345,11.129 367.755,16.195 367.752 C 20.081 367.749,22.955 366.452,61.228 347.428 L 102.111 327.108 102.111 166.241 C 102.111 77.764,101.852 5.416,101.536 5.467 C 101.219 5.519,80.508 15.797,55.512 28.308 M127.447 166.147 L 127.447 326.919 163.844 345.034 C 183.862 354.996,200.446 363.148,200.698 363.148 C 200.949 363.148,201.068 290.854,200.961 202.495 L 200.768 41.843 164.683 23.676 C 144.837 13.685,128.340 5.479,128.023 5.442 C 127.706 5.405,127.447 77.722,127.447 166.147 " stroke="none" fill="#ffffff" fill-rule="evenodd"></path></g></svg>